<?xml version="1.0" standalone="no"?>
<!DOCTYPE svg PUBLIC "-//W3C//DTD SVG 20010904//EN"
 "http://www.w3.org/TR/2001/REC-SVG-20010904/DTD/svg10.dtd">
<svg version="1.0" xmlns="http://www.w3.org/2000/svg"
 width="85.000000pt" height="85.000000pt" viewBox="0 0 85.000000 85.000000"
 preserveAspectRatio="xMidYMid meet">
<metadata>
Created by potrace 1.11, written by Peter Selinger 2001-2013
</metadata>
<g transform="translate(0.000000,85.000000) scale(0.100000,-0.100000)"
fill="#000000" stroke="none">
<path d="M105 700 c-1 -3 50 -126 115 -275 l118 -270 246 -3 c135 -1 246 0
246 2 0 4 -129 304 -155 361 -7 17 -23 53 -35 80 -41 98 -45 105 -55 106 -34
4 -477 3 -480 -1z m365 -186 c0 -24 36 -52 64 -49 20 3 30 -3 41 -25 21 -41
19 -49 -15 -45 -33 4 -39 -10 -20 -46 10 -17 7 -19 -30 -19 -37 0 -42 3 -55
33 -9 22 -20 32 -37 33 -51 2 -56 5 -67 35 -14 41 -14 41 7 38 49 -5 54 -1 37
30 -14 28 -14 30 8 33 35 5 67 -3 67 -18z"/>
<path d="M47 541 c-11 -5 15 -50 111 -189 69 -100 127 -181 128 -179 2 2 -33
87 -78 190 l-82 187 -32 -2 c-17 -1 -39 -4 -47 -7z"/>
<path d="M35 381 c-22 -11 -35 -20 -30 -20 6 -1 28 -18 50 -38 81 -76 183
-163 190 -163 4 0 -6 17 -22 38 -16 20 -54 74 -84 119 -29 45 -56 82 -59 82
-3 0 -23 -8 -45 -18z"/>
</g>
</svg>
