<?xml version="1.0" encoding="UTF-8" standalone="no"?>
<svg width="59px" height="48px" viewBox="0 0 59 48" version="1.1" xmlns="http://www.w3.org/2000/svg" xmlns:xlink="http://www.w3.org/1999/xlink" xmlns:sketch="http://www.bohemiancoding.com/sketch/ns">
    <!-- Generator: Sketch 3.4.4 (17249) - http://www.bohemiancoding.com/sketch -->
    <title>Artboard 44</title>
    <desc>Created with Sketch.</desc>
    <defs></defs>
    <g id="Page-1" stroke="none" stroke-width="1" fill="none" fill-rule="evenodd" sketch:type="MSPage">
        <g id="Artboard-44" sketch:type="MSArtboardGroup">
            <g id="list2" sketch:type="MSLayerGroup" transform="translate(-10.000000, -16.000000)">
                <rect id="Rectangle-path" sketch:type="MSShapeGroup" x="0" y="0" width="79" height="79"></rect>
                <path d="M63.8004,36.1425 L16.8665,36.1425 C14.70585,36.1425 12.956,37.89235 12.956,40.053 C12.956,42.21365 14.70585,43.9635 16.8665,43.9635 L63.8004,43.9635 C65.96105,43.9635 67.70695,42.21365 67.70695,40.053 C67.70695,37.89235 65.96105,36.1425 63.8004,36.1425 L63.8004,36.1425 Z M16.87045,28.3215 L63.80435,28.3215 C65.965,28.3215 67.7109,26.57165 67.7109,24.411 C67.7109,22.25035 65.965,20.5005 63.80435,20.5005 L16.87045,20.5005 C14.7098,20.5005 12.95995,22.25035 12.95995,24.411 C12.95995,26.57165 14.7098,28.3215 16.87045,28.3215 L16.87045,28.3215 Z M63.8004,51.7845 L16.8665,51.7845 C14.70585,51.7845 12.956,53.53435 12.956,55.695 C12.956,57.85565 14.70585,59.6055 16.8665,59.6055 L63.8004,59.6055 C65.96105,59.6055 67.70695,57.85565 67.70695,55.695 C67.70695,53.53435 65.96105,51.7845 63.8004,51.7845 L63.8004,51.7845 Z" id="Shape" fill="#1E93CB" sketch:type="MSShapeGroup"></path>
            </g>
        </g>
    </g>
</svg>